<svg width="100" height="100" version="1.1" viewBox="0 0 26.458 26.458" xmlns="http://www.w3.org/2000/svg" xmlns:xlink="http://www.w3.org/1999/xlink">
 <defs>
  <linearGradient id="b" x1="22.3" x2="41.42" y1="17.15" y2="39.9" gradientUnits="userSpaceOnUse">
   <stop stop-color="#c757e4" offset="0"/>
   <stop stop-color="#5437A0" offset="1"/>
  </linearGradient>
  <linearGradient id="a" x1="22.3" x2="41.42" y1="17.15" y2="39.9" gradientUnits="userSpaceOnUse" xlink:href="#b"/>
 </defs>
 <g transform="matrix(.5774 0 0 .5774 -1.8883 -6.0673)" fill="url(#a)" stroke-width=".45823">
  <path d="m35.02 22.27-3.15-6.83-3.16 6.83c-0.04 0.1-0.1 0.2-0.15 0.29l-1.76-1.76a1.1844 1.1844 0 1 0-1.67 1.68l1.75 1.74-0.2 0.1-0.05 0.02-6.83 3.16 6.83 3.16 0.24 0.11-1.74 1.76a1.1809 1.1809 0 1 0 1.67 1.67l1.76-1.76 0.15 0.3 3.16 6.82 3.15-6.83 0.13-0.24 1.7 1.71a1.1844 1.1844 0 1 0 1.68-1.67l-1.72-1.72 0.3-0.15 6.82-3.16-6.83-3.16-0.29-0.14 1.72-1.73a1.1809 1.1809 0 1 0-1.67-1.67l-1.71 1.7a4.22 4.22 0 0 1-0.11-0.2zm-3.16 0.36-0.42 0.9a7.27 7.27 0 0 1-3.55 3.55l-0.9 0.42 0.9 0.42a7.27 7.27 0 0 1 3.55 3.55l0.42 0.9 0.41-0.9a7.27 7.27 0 0 1 3.56-3.55l0.9-0.42-0.9-0.42a7.27 7.27 0 0 1-3.56-3.55z" clip-rule="evenodd" fill-rule="evenodd"/>
  <path d="m42.08 18.93a1.1879 1.1879 0 0 0-1.68-1.68l-0.56 0.57a1.1809 1.1809 0 0 0 1.67 1.67z"/>
  <path d="m24 19.68c-0.45 0.46-1.2 0.46-1.67 0l-0.56-0.56a1.1879 1.1879 0 0 1 1.68-1.68l0.56 0.57c0.46 0.46 0.46 1.2 0 1.67z"/>
  <path d="m42.08 36.07a1.1879 1.1879 0 0 1-1.68 1.68l-0.56-0.57a1.1809 1.1809 0 0 1 1.67-1.67z"/>
 </g>
 <g transform="matrix(.056244 0 0 .056244 3.4819 7.5404)" stroke-width="13.439">
  <path d="m140.02 0c77.331 0 140.01 62.691 140.01 140.01 0 77.331-62.682 140.02-140.01 140.02-77.323 0-140.01-62.691-140.01-140.02 0-77.323 62.691-140.01 140.01-140.01z" fill="#ccccb9"/>
  <path d="m116.3 116.07c-8.208 5.732-18.736 8.068-29.175 5.286-18.744-5.005-29.867-24.205-24.844-42.879 1.076-3.982 2.905-7.526 5.128-10.729-6.537 4.55-11.647 11.201-13.87 19.479-5.023 18.674 6.099 37.874 24.844 42.879 14.754 3.93 29.718-2.187 37.917-14.036zm111.22-11.052c-24.17 0-43.754-19.593-43.754-43.754 0-9.845 3.369-18.832 8.865-26.148-10.641 7.981-17.615 20.582-17.615 34.898 0 24.17 19.584 43.754 43.754 43.754 14.325 0 26.909-6.974 34.89-17.607-7.3 5.488-16.296 8.857-26.14 8.857zm-127.07 104.47c-9.328-2.503-14.868-12.094-12.374-21.44l0.98-2.59c-4.612 2.083-8.322 6.064-9.731 11.341-2.494 9.346 3.045 18.937 12.374 21.44 8.418 2.258 17.003-2.056 20.451-9.775-3.553 1.61-7.63 2.118-11.7 1.024zm85.234-9.145c-14.01-3.763-22.323-18.149-18.561-32.168 0.674-2.538 1.803-4.804 3.115-6.931-5.644 3.387-10.037 8.838-11.866 15.682-3.763 14.019 4.559 28.405 18.561 32.168 11.464 3.072 23.094-2.021 29.018-11.63-5.881 3.527-13.109 4.787-20.267 2.879z" fill="#c89147" stroke-width="13.439"/>
  <path d="m157.52 262.53c-77.323 0-140.01-62.691-140.01-140.02 0-34.207 12.304-65.518 32.676-89.836-30.654 25.683-50.178 64.213-50.178 107.34 0 77.331 62.691 140.02 140.01 140.02 43.124 0 81.645-19.514 107.34-50.169-24.319 20.372-55.62 32.667-89.836 32.667z" fill="#a8a89e"/>
  <g fill="#a4a490">
   <path d="m262.34 71.958c-10.02-17.957-23.899-33.411-40.481-45.391l-3.08-0.315c-24.17 0-43.754 19.593-43.754 43.754 0 24.17 19.584 43.754 43.754 43.754 23.505 0.01 42.52-18.559 43.561-41.802z"/>
   <circle cx="183.73" cy="183.72" r="26.261"/>
   <path d="m96.579 62.472c-18.753-5.005-38.014 6.073-43.037 24.756-5.023 18.674 6.099 37.874 24.844 42.879 18.753 4.997 38.022-6.082 43.045-24.756s-6.108-37.873-24.852-42.879z"/>
   <circle cx="96.238" cy="201.33" r="17.502"/>
  </g>
 </g>
</svg>
